<?xml version="1.0" encoding="UTF-8" standalone="no"?>
<!-- Created with Inkscape (http://www.inkscape.org/) -->
<svg
   xmlns:dc="http://purl.org/dc/elements/1.1/"
   xmlns:cc="http://web.resource.org/cc/"
   xmlns:rdf="http://www.w3.org/1999/02/22-rdf-syntax-ns#"
   xmlns:svg="http://www.w3.org/2000/svg"
   xmlns="http://www.w3.org/2000/svg"
   xmlns:sodipodi="http://sodipodi.sourceforge.net/DTD/sodipodi-0.dtd"
   xmlns:inkscape="http://www.inkscape.org/namespaces/inkscape"
   width="400"
   height="500"
   id="svg2"
   sodipodi:version="0.32"
   inkscape:version="0.45.1"
   version="1.0"
   sodipodi:docbase="D:\Projects\Cartonizer\trunk\src"
   sodipodi:docname="defaultfaces.svg"
   inkscape:output_extension="org.inkscape.output.svg.inkscape">
  <defs
     id="defs4">
    <linearGradient
       id="linearGradient4111">
      <stop
         style="stop-color:#ab9f1b;stop-opacity:1;"
         offset="0"
         id="stop4113" />
      <stop
         id="stop4119"
         offset="0.5"
         style="stop-color:#efca6e;stop-opacity:1;" />
      <stop
         style="stop-color:#c69c22;stop-opacity:1;"
         offset="1"
         id="stop4115" />
    </linearGradient>
  </defs>
  <sodipodi:namedview
     id="base"
     pagecolor="#ffffff"
     bordercolor="#666666"
     borderopacity="1.0"
     inkscape:pageopacity="0.0"
     inkscape:pageshadow="2"
     inkscape:zoom="0.5"
     inkscape:cx="667.70618"
     inkscape:cy="240.75404"
     inkscape:document-units="px"
     inkscape:current-layer="layer1"
     showgrid="true"
     inkscape:grid-points="true"
     showguides="true"
     inkscape:guide-bbox="true"
     width="400px"
     height="500px"
     borderlayer="true"
     inkscape:object-bbox="true"
     objecttolerance="50"
     inkscape:window-width="1024"
     inkscape:window-height="742"
     inkscape:window-x="-4"
     inkscape:window-y="-4">
    <sodipodi:guide
       orientation="vertical"
       position="100"
       id="guide3136" />
    <sodipodi:guide
       orientation="horizontal"
       position="400"
       id="guide3138" />
  </sodipodi:namedview>
  <metadata
     id="metadata7">
    <rdf:RDF>
      <cc:Work
         rdf:about="">
        <dc:format>image/svg+xml</dc:format>
        <dc:type
           rdf:resource="http://purl.org/dc/dcmitype/StillImage" />
      </cc:Work>
    </rdf:RDF>
  </metadata>
  <g
     inkscape:label="Ebene 1"
     inkscape:groupmode="layer"
     id="layer1">
    <rect
       style="fill:#808080;fill-opacity:1;fill-rule:evenodd;stroke:none;stroke-width:1px;stroke-linecap:butt;stroke-linejoin:miter;stroke-opacity:1"
       id="rect2160"
       width="100"
       height="100"
       x="0"
       y="3.6079646e-014" />
    <rect
       style="fill:#f6e199;fill-opacity:1;stroke:none"
       id="rect3140"
       width="400"
       height="500"
       x="0"
       y="0" />
    <g
       id="g5126"
       transform="matrix(1.3123719,0,0,1.2745062,613.45281,6.9990287)">
      <path
         transform="translate(-76.86684,-52.527932)"
         d="M -223.75,234.15625 C -254.33781,234.15625 -278.99998,258.79244 -279,289.375 C -279,290.91738 -278.91859,292.50856 -278.78125,294.125 C -278.45501,297.96435 -280.63217,301.57883 -284.17857,303.08552 C -287.72496,304.5922 -291.83799,303.6501 -294.375,300.75 C -299.22658,295.2129 -306.25639,291.71875 -314.21875,291.71875 C -328.88329,291.71875 -340.59375,303.45093 -340.59375,318.125 C -340.59375,332.79907 -328.88328,344.53125 -314.21875,344.53125 C -300.48346,344.53125 -289.33276,334.14612 -287.96875,320.84375 C -287.57467,317.00768 -284.75899,313.85979 -280.99043,313.04208 C -277.22187,312.22437 -273.35474,313.92223 -271.40625,317.25 C -261.80927,333.61049 -244.12387,344.625 -223.75,344.625 C -198.77481,344.625 -177.78441,328.06796 -170.90625,305.4375 C -169.95598,302.31197 -167.37241,299.95645 -164.17261,299.29825 C -160.97281,298.64004 -157.66927,299.78456 -155.5625,302.28125 C -148.29906,310.85651 -137.55106,316.28124 -125.40625,316.28125 C -103.49087,316.28125 -85.874998,298.66537 -85.875,276.75 C -85.875,254.83462 -103.49087,237.21875 -125.40625,237.21875 C -141.171,237.21875 -154.69117,246.45306 -161.0625,259.71875 C -162.48148,262.65275 -165.38834,264.57867 -168.6434,264.74142 C -171.89845,264.90418 -174.98293,263.27782 -176.6875,260.5 C -186.41148,244.69114 -203.78189,234.15625 -223.75,234.15625 z "
         id="path4133"
         style="fill:#ffc980;fill-opacity:1;stroke:none"
         inkscape:original="M -223.75 225.25 C -259.15787 225.25 -287.90623 253.96714 -287.90625 289.375 C -287.90625 291.22594 -287.81015 293.06367 -287.65625 294.875 C -294.12933 287.48729 -303.63209 282.8125 -314.21875 282.8125 C -333.70829 282.8125 -349.5 298.63546 -349.5 318.125 C -349.5 337.61454 -333.70828 353.4375 -314.21875 353.4375 C -295.95784 353.4375 -280.91709 339.53191 -279.09375 321.75 C -267.95296 340.74232 -247.34511 353.53125 -223.75 353.53125 C -194.83206 353.53125 -170.37309 334.34651 -162.375 308.03125 C -153.48742 318.52397 -140.2237 325.18749 -125.40625 325.1875 C -98.667861 325.1875 -76.968748 303.48838 -76.96875 276.75 C -76.96875 250.01161 -98.66786 228.3125 -125.40625 228.3125 C -144.64945 228.3125 -161.2803 239.57544 -169.09375 255.84375 C -180.38365 237.48909 -200.6351 225.25 -223.75 225.25 z "
         inkscape:radius="-8.9146099"
         sodipodi:type="inkscape:offset" />
      <path
         id="path4137"
         d="M -300.375,193.28125 C -324.07318,193.28125 -343.28126,212.48932 -343.28125,236.1875 C -343.28125,259.88568 -324.07319,279.12501 -300.375,279.125 C -276.67682,279.125 -257.43751,259.88567 -257.4375,236.1875 C -257.4375,212.48932 -276.67683,193.28125 -300.375,193.28125 z M -289.28125,209.09375 L -297.84375,232.8125 L -273.40625,238.96875 L -298.59375,238.15625 L -296.90625,263.3125 L -303.9375,239.09375 L -327.3125,248.5 L -306.46875,234.3125 L -322.625,214.96875 L -302.71875,230.4375 L -289.28125,209.09375 z "
         style="fill:#ff8080;fill-opacity:1;stroke:none" />
      <path
         id="path4139"
         d="M -391.3125,243.53125 C -403.08353,243.53125 -412.65626,253.39717 -412.65625,265.5625 C -412.65625,277.72782 -403.08352,287.59376 -391.3125,287.59375 C -379.54147,287.59375 -369.99999,277.72781 -370,265.5625 C -370,253.39718 -379.54145,243.53125 -391.3125,243.53125 z M -391.3125,257.8125 C -387.17158,257.8125 -383.8125,261.28289 -383.8125,265.5625 C -383.8125,269.84209 -387.1716,273.3125 -391.3125,273.3125 C -395.45339,273.3125 -398.8125,269.84211 -398.8125,265.5625 C -398.8125,261.28288 -395.4534,257.8125 -391.3125,257.8125 z "
         style="fill:#ff8080;fill-opacity:1;stroke:none" />
      <path
         transform="matrix(0.3802417,0,0,0.3802417,-81.122174,131.9881)"
         d="M -274.13703 238.87556 A 42.931484 42.931484 0 1 1  -360,238.87556 A 42.931484 42.931484 0 1 1  -274.13703 238.87556 z"
         sodipodi:ry="42.931484"
         sodipodi:rx="42.931484"
         sodipodi:cy="238.87556"
         sodipodi:cx="-317.06851"
         id="path4141"
         style="fill:#ff8080;fill-opacity:1;stroke:none"
         sodipodi:type="arc" />
    </g>
    <path
       style="fill:#ffffff;fill-opacity:1;fill-rule:evenodd;stroke:none;stroke-width:6;stroke-linecap:butt;stroke-linejoin:miter;stroke-miterlimit:4;stroke-dasharray:none;stroke-opacity:1"
       d="M 0,500 C 125.95218,435.3205 179.58327,398.86566 145.21687,476.18707 C 116.50973,540.77563 336.6261,344.31542 285.93445,443.28097 C 236.49033,539.81096 359.28571,439.05505 400,361.45982 L 400,500 L 0,500 z "
       id="path5132"
       sodipodi:nodetypes="cssccc" />
    <path
       style="fill:#ffffff;fill-opacity:1;fill-rule:evenodd;stroke:none;stroke-width:10;stroke-linecap:butt;stroke-linejoin:round;stroke-miterlimit:4;stroke-dasharray:none;stroke-opacity:1"
       d="M 400,101.625 C 362.30959,109.86428 312.79843,115.73772 284.6875,106.25 C 256.68192,96.79783 231.29736,83.61541 197.875,100.6875 C 78.640661,135.19881 62.410414,90.942282 0,82 L 0,326.59375 C 47.22095,292.21505 47.17437,238.02842 105.65625,257.96875 C 143.31352,202.12216 190.65783,167.33656 286.71875,205.1875 C 310.85382,220.748 326.95086,180.94754 400,205 L 400,101.625 z "
       id="path3525"
       sodipodi:nodetypes="csccccccc" />
    <path
       style="fill:#9fbef4;fill-opacity:1;fill-rule:evenodd;stroke:none;stroke-width:10;stroke-linecap:butt;stroke-linejoin:round;stroke-miterlimit:4;stroke-dasharray:none;stroke-opacity:1"
       d="M 0,308.3125 C 18.886658,290.06886 36.889814,258.26958 59.5625,244.21875 C 72.403689,237.51771 89.820875,239.41599 103.5,243.46875 C 124.34991,212.68823 154.29532,184.889 192.15625,178.4375 C 227.58606,171.9031 263.59727,181.50278 296.1875,195.03125 C 310.31542,197.58016 322.44433,187.23559 336.1875,185.9375 C 354.99866,182.50781 377.92367,189.89342 396.25,194.9375 C 396,167.4375 400.25,138.5625 400,111.0625 C 360.64214,118.41482 310.41926,128.15541 272.15023,112.88744 C 252.24444,105.59844 225.42159,98.439445 205,108.25 C 186.60289,116.12872 172.00993,125.05826 151.78125,126.90625 C 95.889557,134.99589 52.681881,106.39412 0,92.5 C 4.3779677e-015,164 4.7338689e-015,231 0,308.3125 z "
       id="path6103"
       sodipodi:nodetypes="ccccccccccccc" />
    <path
       style="fill:none;fill-rule:evenodd;stroke:none;stroke-width:1px;stroke-linecap:butt;stroke-linejoin:miter;stroke-opacity:1"
       d="M 110.79357,292.75733 C 166.79429,242.03452 279.23044,211.2686 358.58579,223.29674"
       id="path8047"
       sodipodi:nodetypes="cc" />
    <path
       style="fill:none;fill-rule:evenodd;stroke:none;stroke-width:1px;stroke-linecap:butt;stroke-linejoin:miter;stroke-opacity:1"
       d="M 253.13351,272.72792 C 329.17154,238.58579 397.23144,269.40661 397.23144,269.40661"
       id="path10959"
       sodipodi:nodetypes="cc" />
    <path
       style="font-size:71.19192505px;font-style:normal;font-variant:normal;font-weight:bold;font-stretch:normal;text-align:start;line-height:125%;writing-mode:lr-tb;text-anchor:start;fill:#ff8080;fill-opacity:1;stroke:#3d598b;stroke-width:3.33712173;stroke-linecap:butt;stroke-linejoin:miter;stroke-miterlimit:4;stroke-opacity:1;font-family:DejaVu Sans"
       d="M 273.86085,224.7099 L 274.1819,215.71655 L 283.9856,216.07717 L 283.66455,225.07052 L 273.86085,224.7099 z M 272.37168,266.42522 L 273.68304,229.69083 L 283.48674,230.05145 L 282.17539,266.78584 L 272.37168,266.42522 z M 288.246,267.00914 L 288.51642,259.43397 L 302.96638,244.13719 C 305.33795,241.63836 307.08967,239.86713 308.22156,238.82349 C 307.07938,238.85078 305.57752,238.84171 303.716,238.79631 L 290.6303,238.38423 L 290.91801,230.3248 L 321.55019,231.45158 L 321.30447,238.33496 L 306.56182,254.00195 L 301.38135,259.17985 C 304.10841,259.11854 305.79757,259.09986 306.44884,259.12381 L 321.62538,259.68206 L 321.32038,268.22575 L 288.246,267.00914 z M 349.78818,257.56619 L 359.49895,259.55125 C 358.11615,263.05628 356.03679,265.6871 353.26088,267.44375 C 350.48491,269.2004 347.06177,270.00386 342.99145,269.85414 C 336.54868,269.61715 331.85508,267.35484 328.91063,263.06721 C 326.58779,259.63371 325.51733,255.36884 325.69927,250.27259 C 325.91658,244.18481 327.69166,239.47621 331.02448,236.1468 C 334.35729,232.81746 338.47753,231.24303 343.3852,231.42351 C 348.89758,231.62632 353.1826,233.59074 356.24029,237.31678 C 359.29792,241.04289 360.62402,246.62753 360.21861,254.07072 L 335.65704,253.16725 C 335.6239,256.05231 336.33465,258.32397 337.78929,259.98224 C 339.24391,261.64051 341.09929,262.51114 343.35543,262.59412 C 344.89051,262.6506 346.1962,262.283 347.27251,261.49134 C 348.34879,260.69969 349.18734,259.39131 349.78818,257.56619 L 349.78818,257.56619 z M 350.69708,247.76322 C 350.7277,244.94737 350.0714,242.78162 348.72815,241.26596 C 347.38486,239.75035 345.71308,238.95574 343.71282,238.88214 C 341.57298,238.80345 339.77771,239.51094 338.32703,241.00458 C 336.87632,242.49829 336.11526,244.5715 336.04387,247.22422 L 350.69708,247.76322 z M 377.07236,270.27653 L 367.26866,269.91591 L 368.58002,233.18152 L 377.68594,233.51647 L 377.49949,238.73953 C 379.14591,236.32948 380.6053,234.75531 381.87767,234.01702 C 383.15,233.27878 384.57698,232.93875 386.15862,232.99689 C 388.39146,233.07906 390.52111,233.76928 392.54757,235.06757 L 389.20973,243.43042 C 387.59618,242.30895 386.08002,241.7221 384.66124,241.66988 C 383.28894,241.61943 382.11261,241.95138 381.13225,242.66572 C 380.15185,243.38012 379.35339,244.70729 378.73684,246.64725 C 378.12027,248.58726 377.70045,252.68186 377.47737,258.93107 L 377.07236,270.27653 z "
       id="text10961" />
    <path
       style="font-size:96.71924591px;font-style:normal;font-variant:normal;font-weight:bold;font-stretch:condensed;text-align:start;line-height:125%;writing-mode:lr-tb;text-anchor:start;fill:#ff8080;fill-opacity:1;stroke:#3d598b;stroke-width:4.67283964;stroke-linecap:butt;stroke-linejoin:miter;stroke-miterlimit:4;stroke-opacity:1;font-family:DejaVu Sans"
       d="M 152.41259,183.40682 L 162.58316,189.26226 C 156.78045,200.86225 150.72283,209.57393 144.4103,215.39734 C 138.09767,221.22074 131.54513,224.31953 124.75274,224.69371 C 116.34851,225.15665 111.06316,220.75943 108.89667,211.50198 C 106.73016,202.24457 108.46036,189.32964 114.08731,172.75717 C 120.03948,155.22682 127.38202,141.4622 136.11501,131.46327 C 144.84791,121.46451 153.6467,116.22094 162.51148,115.73252 C 170.25365,115.30614 175.2495,118.76753 177.49911,126.11671 C 178.84847,130.46061 178.81161,136.80783 177.38851,145.15836 L 163.03144,150.88442 C 164.13701,145.46543 164.03926,141.24069 162.7382,138.21017 C 161.437,135.17987 159.08833,133.75819 155.69217,133.9452 C 151.0007,134.20372 146.24298,137.21537 141.41894,142.98021 C 136.59483,148.74517 132.05237,157.90217 127.79155,170.45117 C 123.27047,183.76667 121.48949,193.17105 122.44865,198.66434 C 123.40779,204.15769 126.18988,206.7775 130.79495,206.52383 C 134.19115,206.33676 137.72233,204.37969 141.38852,200.65259 C 145.0546,196.92556 148.72928,191.17699 152.41259,183.40682 L 152.41259,183.40682 z M 189.64628,167.32583 L 179.75947,164.62734 C 183.50152,157.18307 187.48531,151.60545 191.71084,147.89452 C 195.93633,144.18373 201.02798,142.16419 206.98579,141.83591 C 212.39667,141.53793 216.06424,142.38168 217.98851,144.36715 C 219.91265,146.3528 220.8574,148.95633 220.82277,152.17777 C 220.78802,155.39933 219.28261,161.39269 216.30659,170.15784 L 208.17576,193.73041 C 205.89894,200.43605 204.41407,205.37073 203.72118,208.53449 C 203.02821,211.69828 202.59623,215.07091 202.42523,218.65243 L 190.42331,219.31357 C 190.56204,217.9899 190.84839,216.02358 191.28237,213.41459 C 191.48745,212.22827 191.61187,211.44587 191.65567,211.06743 C 188.44496,214.53441 185.375,217.17109 182.44572,218.9775 C 179.51641,220.78393 176.71344,221.76085 174.03676,221.90831 C 169.31658,222.16833 166.32026,220.24182 165.04782,216.12879 C 163.77533,212.01577 164.24496,206.70226 166.45672,200.18821 C 167.92035,195.87749 169.84425,191.99965 172.22841,188.55466 C 174.61251,185.10978 177.22481,182.42781 180.06526,180.50873 C 182.90564,178.58976 186.65459,176.84394 191.31208,175.27131 C 197.58373,173.18681 202.0735,171.31793 204.78134,169.66467 L 205.46437,167.65299 C 206.7816,163.77338 207.14516,161.03902 206.555,159.44992 C 205.96477,157.86095 204.07229,157.15443 200.87759,157.33035 C 198.71893,157.44933 196.79534,158.24857 195.10679,159.72805 C 193.4182,161.20768 191.59801,163.74026 189.64628,167.32583 L 189.64628,167.32583 z M 200.3172,182.81248 C 198.47023,183.76027 195.65974,184.92564 191.88577,186.30854 C 188.11173,187.6915 185.51149,188.98627 184.08509,190.19284 C 181.86782,192.14806 180.27132,194.56257 179.29557,197.43639 C 178.33606,200.26235 178.13984,202.67024 178.70696,204.66003 C 179.27403,206.64986 180.53614,207.59087 182.4933,207.48304 C 184.68067,207.36255 187.1739,206.0502 189.97299,203.54591 C 192.0588,201.64499 193.7792,199.36463 195.13421,196.70489 C 196.03624,194.96318 197.30854,191.67351 198.95112,186.83586 L 200.3172,182.81248 z M 223.40697,217.49661 L 211.27555,218.16492 L 237.18221,141.86453 L 248.45019,141.24384 L 244.76665,152.09257 C 248.43509,146.86139 251.31572,143.38911 253.4085,141.67571 C 255.50121,139.96245 257.52614,139.05189 259.48336,138.944 C 262.24631,138.79188 264.47766,139.91448 266.17734,142.31186 L 256.44475,160.12101 C 255.14933,158.03037 253.62377,157.03337 251.86814,157.13004 C 250.16998,157.22363 248.46664,158.08124 246.7581,159.70286 C 245.04948,161.32456 243.16582,164.18966 241.10717,168.29813 C 239.04843,172.40669 235.81546,180.95104 231.40827,193.93117 L 223.40697,217.49661 z M 293.09038,138.78474 L 287.62607,154.87826 L 279.33698,155.33486 L 268.89627,186.0849 C 266.78207,192.31157 265.62932,195.93543 265.43797,196.95648 C 265.24661,197.97757 265.31771,198.80794 265.65131,199.44755 C 265.98482,200.08721 266.55455,200.38485 267.36046,200.34044 C 268.48291,200.27861 270.32862,199.54243 272.89757,198.13186 L 268.61577,213.73719 C 265.11211,215.90424 261.57584,217.08607 258.00695,217.28267 C 255.81954,217.40317 254.05536,216.90108 252.71439,215.77642 C 251.37342,214.65176 250.62212,213.14209 250.4605,211.24744 C 250.29885,209.35281 250.6208,206.76174 251.42637,203.47424 C 251.96418,201.14158 253.44467,196.40689 255.86786,189.27017 L 267.16239,156.00551 L 261.59315,156.31233 L 267.05745,140.2188 L 272.62669,139.91204 L 277.77386,124.75256 L 293.94911,112.29919 L 284.80129,139.24137 L 293.09038,138.78474 z M 286.20171,175.54333 C 288.47848,168.83776 291.67506,162.29298 295.79143,155.90898 C 299.90776,149.52511 304.34743,144.5804 309.11048,141.07486 C 313.87343,137.56948 318.49989,135.69305 322.98986,135.44564 C 329.92615,135.06363 334.33793,138.49846 336.22523,145.75014 C 338.1124,153.00195 337.11261,162.35156 333.22585,173.79895 C 329.30646,185.34223 323.82021,195.03295 316.76707,202.8712 C 309.71385,210.70947 302.79103,214.81566 295.99862,215.18986 C 291.7965,215.42131 288.32533,214.06148 285.58514,211.11034 C 282.84491,208.15921 281.51859,203.68489 281.6062,197.68735 C 281.69376,191.6899 283.2256,184.30855 286.20171,175.54333 L 286.20171,175.54333 z M 298.26943,175.93608 C 295.69988,183.50387 294.81139,189.23998 295.60395,193.14442 C 296.39647,197.04891 298.37572,198.91393 301.54173,198.7395 C 304.70765,198.56511 308.04578,196.40719 311.55614,192.26567 C 315.06639,188.12422 318.12256,182.22169 320.72466,174.5581 C 323.2616,167.08618 324.14103,161.39755 323.36293,157.49226 C 322.58473,153.58707 320.61267,151.72162 317.44675,151.89597 C 314.28074,152.07042 310.9354,154.22879 307.41075,158.371 C 303.88603,162.51334 300.83893,168.36836 298.26943,175.93608 L 298.26943,175.93608 z M 371.4449,209.34173 L 359.31347,210.01001 L 372.53514,171.06951 C 375.3323,162.83123 376.8825,157.51695 377.18575,155.12663 C 377.48893,152.73638 377.28538,150.9028 376.57512,149.62583 C 375.86478,148.34898 374.68937,147.7557 373.04887,147.84603 C 370.94776,147.96182 368.73732,149.02362 366.41752,151.03141 C 364.09763,153.03932 362.09164,155.6409 360.39953,158.83613 C 358.70735,162.03149 356.41389,167.89198 353.51914,176.41767 L 341.78552,210.97556 L 329.65409,211.64383 L 355.56076,135.34345 L 366.82874,134.72275 L 363.02324,145.93072 C 369.95114,137.08889 376.45155,132.5007 382.52451,132.16607 C 385.20113,132.01873 387.37517,132.68622 389.0466,134.16862 C 390.7179,135.65118 391.69919,137.60642 391.99047,140.0344 C 392.2816,142.46249 392.11359,145.24483 391.48643,148.3814 C 390.85913,151.51811 389.54537,156.03209 387.5451,161.92341 L 371.4449,209.34173 z "
       id="text8043" />
    <path
       style="fill:#9fbef4;fill-opacity:1;fill-rule:evenodd;stroke:none;stroke-width:6;stroke-linecap:butt;stroke-linejoin:miter;stroke-miterlimit:4;stroke-dasharray:none;stroke-opacity:1"
       d="M 300.07974,483.5625 C 292.47844,488.03592 282.39759,493.6141 273.70474,488.9375 C 265.0844,482.27418 268.80917,470.00695 271.92349,461.5 C 276.48433,448.62699 286.13526,436.42043 287.26724,422.78125 C 270.26439,426.26048 255.3123,436.61611 240.5585,445.49374 C 211.95139,462.23965 185.57259,487.40711 154.67349,500 C 234.45474,500 320,500 400,500 C 399.98276,459 400,418.20833 400,381.8125 C 374.09792,421.75049 338.05423,455.76544 300.07974,483.5625 z M 143.11099,440.53125 C 125.62752,444.22026 109.37459,453.04861 93.167994,460.44702 C 70.115334,471.82761 47.87762,488.31558 25,500 C 63.83333,500 103,500 141.43912,500 C 134.09862,495.94472 137.08546,482.26091 139.42349,476.125 C 143.76269,465.86421 149.25592,455.52272 149.39224,444.21875 C 149.41984,440.63915 145.94808,440.32381 143.11099,440.53125 z "
       id="path6444"
       sodipodi:nodetypes="cccccccccccccccc" />
  </g>
</svg>
